<svg id="Layer_1" enable-background="new 0 0 511.988 511.988" height="512" viewBox="0 0 511.988 511.988" width="512" xmlns="http://www.w3.org/2000/svg"><g><g><path d="m499.214 88.927c-16.729-23.917-47.452-40.592-70.492-45.448-.823-.746-1.653-1.489-2.515-2.213-27.165-22.827-67.096-28.884-94.883-27.185-7.865-6.063-16.933-10.22-27.183-12.385-37.554-7.937-81.652 13.338-110.201 35.405-5.738-2.252-11.982-3.018-18.783-2.309-38.076 3.971-70.335 18.938-95.881 44.483-25.546 25.547-40.513 57.806-44.483 95.881-.709 6.802.056 13.045 2.307 18.783-22.073 28.558-43.328 72.626-35.409 110.18 2.163 10.259 6.322 19.334 12.389 27.205-1.699 27.765 4.382 67.812 27.252 94.963.702.834 1.423 1.635 2.146 2.433 4.858 23.047 21.566 53.815 45.497 70.528 12.062 8.424 25.151 12.74 38.383 12.74 3.696 0 7.403-.336 11.102-1.015 11.938-2.188 27.493-11.002 33.798-40.564 3.984-18.677 2.828-38.538 1.813-48.544 7.534-15.761 13.506-43.542 15.509-53.577 1.822-1.296 3.566-2.659 5.234-4.123 11.576-10.162 25.863-33.178 29.948-65.746 16.923-2.933 32.582-11.688 47.276-26.381 14.7-14.7 23.468-30.366 26.4-47.296 30.616-3.918 54.755-17.431 65.726-29.928 1.461-1.664 2.822-3.404 4.115-5.222 9.165-1.827 37.579-7.871 53.586-15.521 4.665.473 11.465.977 19.286.977 8.966 0 19.274-.661 29.244-2.787 29.572-6.304 38.389-21.861 40.577-33.801 3.11-16.961-.956-34.088-11.758-49.533zm-64.816 8.636c3.212 39.805-8.587 51.627-19.225 57.479-7.897 4.343-23.563 8.775-36.77 11.905 1.57-12.006-.475-31.874-6.123-59.302-5.709-27.721-13.717-55.123-19.475-66.639-1.211-2.423-2.504-4.724-3.856-6.936 22.401 1.387 47.406 8.234 64.39 22.506 12.636 10.62 19.722 24.409 21.059 40.987zm-400.322 251.391c2.21 1.351 4.51 2.643 6.931 3.854 11.516 5.758 38.918 13.766 66.639 19.475 21.475 4.422 38.319 6.638 50.383 6.638 3.339 0 6.294-.177 8.897-.517-3.053 12.832-7.5 28.802-11.884 36.77-5.852 10.638-17.677 22.437-57.48 19.227-16.551-1.335-30.322-8.399-40.933-20.997-14.291-16.969-21.157-42.029-22.553-64.45zm100.777 142.347c-11.732 2.149-23.317-.692-34.427-8.451-11.8-8.241-21.59-21.042-28.346-33.999 7.39 2.955 15.353 4.796 23.873 5.483 4.615.372 9.578.645 14.711.645 14.817 0 31.039-2.275 44.306-10.972-.471 22.127-5.635 44.64-20.117 47.294zm123.042-233.405c-20.283 20.283-41.78 26.062-67.654 18.184-5.282-1.61-10.87 1.37-12.479 6.653-1.609 5.284 1.37 10.871 6.654 12.479 6.866 2.091 13.534 3.415 20.024 3.992-3.704 23.724-13.96 42.153-22.82 49.93-4.033 3.54-8.765 6.394-14.89 8.979-3.786 1.6-21.57 1.474-55.051-5.422-25.793-5.312-51.753-12.786-61.728-17.773-16.042-8.021-25.426-19.445-28.691-34.926-5.79-27.458 9.182-62.954 28.266-89.287 2.551 2.187 5.428 4.276 8.64 6.27 14.009 8.699 28.23 19.016 41.983 28.993l3.711 2.691c4.472 3.241 10.724 2.242 13.965-2.229 3.241-4.473 2.242-10.725-2.23-13.966l-3.703-2.685c-14.039-10.186-28.556-20.717-43.177-29.796-12.787-7.938-14.857-14.837-14.032-22.753 3.482-33.395 16.514-61.594 38.733-83.813 22.218-22.219 50.417-35.251 83.812-38.733 7.915-.819 14.814 1.245 22.754 14.031 9.091 14.642 19.638 29.18 29.838 43.238 39.264 54.114 73.171 100.847 28.075 145.943zm41.319-53.453c-.589-6.639-1.961-13.464-4.135-20.496-8.672-28.061-29.208-56.365-49.068-83.737-9.992-13.772-20.325-28.014-29.035-42.042-1.994-3.212-4.084-6.089-6.271-8.64 26.334-19.081 61.852-34.062 89.303-28.262 15.474 3.268 26.893 12.651 34.91 28.688 4.987 9.974 12.463 35.935 17.774 61.728 6.895 33.48 7.02 51.266 5.421 55.051-2.586 6.126-5.439 10.857-8.979 14.889-7.823 8.91-26.215 19.124-49.92 22.821zm192.087-69.589c-2.655 14.484-25.167 19.645-47.297 20.117 11.711-17.863 11.777-41.083 10.33-59.017-.688-8.522-2.529-16.486-5.484-23.877 12.941 6.746 25.727 16.522 33.974 28.314 7.778 11.12 10.63 22.715 8.477 34.463z"/><path d="m290.85 51.406h-.007c-5.522 0-9.997 4.478-9.997 10s4.481 10 10.004 10 10-4.478 10-10-4.477-10-10-10z"/><path d="m194.851 134.406h-.007c-5.523 0-9.997 4.478-9.997 10s4.481 10 10.004 10 10-4.478 10-10-4.478-10-10-10z"/><path d="m120.851 122.406h-.007c-5.523 0-9.997 4.478-9.997 10s4.481 10 10.004 10 10-4.478 10-10-4.478-10-10-10z"/><path d="m75.343 295.406h-.007c-5.523 0-9.997 4.478-9.997 10s4.481 10 10.004 10 10-4.478 10-10-4.477-10-10-10z"/><path d="m102.851 412.406c5.523 0 10-4.478 10-10s-4.477-10-10-10h-.007c-5.523 0-9.997 4.478-9.997 10s4.481 10 10.004 10z"/><path d="m146.797 256.083h-.007c-5.523 0-9.996 4.478-9.996 10s4.48 10 10.003 10 10-4.478 10-10-4.477-10-10-10z"/></g></g></svg>