<svg id="Layer_1" enable-background="new 0 0 512 512" height="512" viewBox="0 0 512 512" width="512" xmlns="http://www.w3.org/2000/svg"><g id="XMLID_3114_"><g id="XMLID_430_"><path id="XMLID_514_" d="m428.194 191h-405.194c-5.523 0-10 4.477-10 10v84.196c0 7.499.384 15.082 1.142 22.538.559 5.495 5.468 9.5 10.959 8.938 5.495-.558 9.496-5.465 8.938-10.959-.689-6.787-1.039-13.69-1.039-20.517v-74.196h341.285v74.196c0 64.065-30.557 124.681-81.905 162.804h-177.477c-22.285-16.53-40.634-37.084-54.573-61.138-2.769-4.779-8.888-6.407-13.666-3.639-4.779 2.769-6.408 8.888-3.639 13.666 15.032 25.941 34.74 48.171 58.617 66.157v38.954c0 5.523 4.477 10 10 10h184c5.522 0 10-4.477 10-10v-38.967c12.893-9.727 24.584-20.74 34.92-32.81h6.371c83.85 0 152.066-68.217 152.066-152.066v-16.351c.001-39.042-31.763-70.806-70.805-70.806zm-142.551 301h-164v-24h164zm108.642-237h33.909c3.753 0 6.806 3.053 6.806 6.806v16.351c0 35.886-21.584 67.411-53.431 81 8.293-23.498 12.716-48.477 12.716-73.961zm84.715 23.157c0 69.764-54.376 127.058-122.97 131.747 5.714-8.466 10.825-17.315 15.326-26.468 48.764-11.266 83.644-54.75 83.644-105.279v-16.351c0-14.78-12.025-26.806-26.806-26.806h-33.909v-24h33.909c28.015 0 50.806 22.792 50.806 50.806z"/><path id="XMLID_520_" d="m40.43 343.7c-1.86-1.87-4.44-2.93-7.07-2.93-2.64 0-5.22 1.06-7.07 2.93-1.87 1.85-2.93 4.43-2.93 7.07 0 2.63 1.06 5.21 2.93 7.07 1.86 1.86 4.43 2.93 7.07 2.93 2.63 0 5.21-1.07 7.07-2.93s2.93-4.44 2.93-7.07c0-2.64-1.07-5.21-2.93-7.07z"/><path id="XMLID_521_" d="m245.421 108.189c0 9.692-3.774 18.804-10.628 25.658-3.905 3.905-3.906 10.237 0 14.142 1.953 1.953 4.512 2.929 7.071 2.929s5.119-.977 7.071-2.929c10.631-10.631 16.486-24.766 16.486-39.801s-5.854-29.169-16.486-39.801c-6.854-6.854-10.628-15.965-10.628-25.658s3.774-18.805 10.628-25.658c3.905-3.905 3.905-10.237 0-14.143-3.905-3.905-10.237-3.905-14.143 0-10.631 10.631-16.486 24.766-16.486 39.801s5.855 29.169 16.486 39.801c6.854 6.854 10.629 15.966 10.629 25.659z"/><path id="XMLID_522_" d="m168.98 128.189c0 9.692-3.774 18.804-10.628 25.658-3.905 3.905-3.906 10.237 0 14.142 1.953 1.953 4.512 2.929 7.071 2.929s5.119-.977 7.071-2.929c10.631-10.631 16.486-24.766 16.486-39.801s-5.855-29.169-16.486-39.801c-14.148-14.147-14.148-37.168 0-51.316 3.905-3.905 3.905-10.237 0-14.142s-10.237-3.905-14.142 0c-21.945 21.946-21.945 57.655 0 79.601 6.853 6.854 10.628 15.966 10.628 25.659z"/></g></g></svg>