<svg id="Capa_1" enable-background="new 0 0 512 512" height="512" viewBox="0 0 512 512" width="512" xmlns="http://www.w3.org/2000/svg"><g><path d="m256 0c-.004 0 0 0-.004 0-65.016 0-127.003 24.406-174.531 68.719-3.03 2.824-3.196 7.57-.372 10.6 2.826 3.031 7.57 3.196 10.6.371 44.745-41.717 103.097-64.691 164.307-64.69 132.888 0 241 108.112 241 241s-108.112 241-241 241-241-108.112-241-241c0-55.019 19.023-108.824 53.565-151.503 2.605-3.221 2.108-7.942-1.112-10.549-3.219-2.605-7.941-2.108-10.548 1.111-36.696 45.342-56.905 102.499-56.905 160.941 0 141.491 114.497 256 256 256 141.491 0 256-114.497 256-256 0-141.491-114.497-256-256-256z"/><path d="m263.348 303.167c-30.115 9.294-45.936 40.794-36.947 69.923 7.28 23.594 28.748 39.445 53.419 39.445 30.347 0 55.949-24.332 55.949-55.917 0-37.488-36.162-64.642-72.421-53.451zm16.472 94.368c-18.051 0-33.758-11.601-39.086-28.867v-.001c-6.58-21.321 4.995-44.364 27.037-51.167 26.462-8.168 52.998 11.603 52.998 39.118 0 23.167-18.807 40.917-40.949 40.917z"/><path d="m264.175 158.61 27.15-27.149c2.929-2.929 2.929-7.678 0-10.606-2.928-2.93-7.677-2.929-10.606-.001l-27.15 27.149c-2.929 2.929-2.929 7.678 0 10.606 2.928 2.93 7.676 2.93 10.606.001z"/><path d="m278.546 183.588c2.93 2.929 7.678 2.928 10.606 0l27.15-27.15c2.929-2.93 2.929-7.678 0-10.607-2.929-2.928-7.678-2.928-10.606 0l-27.15 27.15c-2.929 2.929-2.929 7.677 0 10.607z"/><path d="m303.523 208.565c2.93 2.929 7.678 2.928 10.606 0l27.15-27.15c2.929-2.93 2.929-7.678 0-10.607-2.929-2.928-7.678-2.928-10.606 0l-27.15 27.15c-2.929 2.93-2.929 7.678 0 10.607z"/><path d="m331.786 447.118c28.725-15.705 30.65-28.125 54.507-52.374 5.827-5.923 10.239-12.875 13.1-20.431 27.481-33.256 42.607-75.208 42.607-118.313 0-88.731-63.206-165.556-150.357-182.556l-41.895-40.828c-10.645-10.375-28.597-2.821-28.597 12.062v28.615c-10.472 1.996-20.776 4.904-30.751 8.675-22.708-10.121-47.042 6.469-64.031 24.776-41.106 44.294-70.065 128.027-65.095 188.271 2.13 25.816 11.64 54.634 37.03 59.467 7.551 12.049 16.452 23.207 26.547 33.256-2.29 8.567-2.295 17.869.505 26.937 7.669 24.855 30.285 41.556 56.276 41.556 16.173 0 20.126-5.862 38.843-5.862 26.409 0 37.551 14.873 75.932 8.871 4.093-.641 6.891-4.477 6.251-8.569s-4.482-6.895-8.568-6.251c-34.968 5.471-43.32-9.051-73.614-9.051-20.992 0-25.428 5.862-38.843 5.862-19.37 0-36.226-12.449-41.943-30.979-2.197-7.118-1.966-14.62.617-21.577.046-.105.101-.204.143-.311 3.723-9.639 11.541-16.917 21.344-19.941 12.951-3.998 20.156-17.123 17.381-29.793-.6-2.733-3.666-10.332-2.029-21.508 1.964-13.108 9.959-25.363 22.505-32.137.001 0 .001-.001.002-.001 5.794-3.126 7.95-3.335 53.619-17.426 8.707-2.687 17.718-4.056 26.771-4.056 27.233 0 53.871 12.676 71.095 34.138 12.223 15.231 21.054 21.548 24.463 25.01 16.717 16.98 16.861 44.44.002 61.577-25.026 25.439-25.307 35.684-51.008 49.731-3.635 1.987-4.971 6.544-2.984 10.179 1.984 3.632 6.54 4.968 10.175 2.981zm83.662-253.021-101.675-99.086c47.115 16.847 83.954 53.412 101.675 99.086zm-179.297-114.503v-34.917c0-1.601 1.91-2.507 3.128-1.319l181.776 177.149c1.208 1.178.368 3.161-1.286 3.161h-181.775c-1.016 0-1.842-.826-1.842-1.842v-142.232zm-159.928 214.185c-4.624-56.053 22.89-135.617 61.141-176.834 13.867-14.943 27.561-22.99 38.693-22.99 2.342 0 4.572.356 6.665 1.08 12.36 4.268 16.801 19.343 9.413 29.996-5.598 8.074-10.931 17.153-15.619 25.939-9.66-3.34-15.966-6.746-24.605-2.547-9.561 4.647-13.538 16.147-8.889 25.708 2.246 4.621 6.158 8.091 11.013 9.769l5.911 2.044c-2.112 4.994-4.177 10.105-6.184 15.307l-14.682-5.077c-10.023-3.465-20.998 1.872-24.463 11.894-1.679 4.856-1.366 10.075.88 14.695 2.246 4.621 6.158 8.091 11.013 9.769l14.69 5.08c-1.634 5.329-3.175 10.625-4.598 15.855l-5.913-2.045c-10.021-3.463-20.997 1.872-24.463 11.894-1.679 4.856-1.366 10.075.88 14.695 2.246 4.621 6.158 8.091 11.013 9.769l9.918 3.429c-1.921 10.832-3.205 20.971-3.745 30.043v.005c-1.386 23.159-42.853 35.754-48.069-27.478zm93.417-129.315c-1.223 2.524-2.437 5.095-3.637 7.702l-7.066-2.443c-5.178-1.788-2.636-9.864 2.768-8.003zm-21.087 50.856c-.925 2.605-1.892 5.406-2.768 8.004l-14.375-4.971c-2.216-.765-3.381-3.178-2.618-5.385.76-2.199 3.168-3.383 5.386-2.619zm-15.699 52.72c-.667 2.793-1.3 5.564-1.897 8.305l-7.936-2.744c-2.217-.766-3.381-3.178-2.617-5.385.761-2.202 3.171-3.382 5.385-2.619zm229.979 20.209c-19.51-24.311-49.032-39.087-80.763-39.719-10.9-.21-22.028 1.237-33.224 4.691-49.021 15.126-49.514 14.899-56.305 18.548-.02.01-.04.02-.059.031-15.543 8.375-26.435 23.225-29.749 40.569-.014.073-.026.146-.04.219-3.112 16.631 1.757 27.609 2.028 30.521.445 4.868-2.583 9.507-7.352 10.977-10.25 3.163-19.499 9.691-25.843 19.028-5.829-6.19-11.188-12.797-16.033-19.769 13.084-4.387 22.9-16.562 23.773-31.202 3.27-54.86 33.866-143.376 65.197-188.565 8.314-11.99 8.496-28.168-.367-40.521 5.603-1.788 11.3-3.286 17.056-4.484 0 144.375-.154 134.22.343 136.644 1.573 7.667 8.373 13.452 16.5 13.452 195.905 0 183.754.509 188.012-1.186.657 6.093.993 12.268.993 18.517 0 31.148-8.588 61.645-24.536 88.118-4.709-29.423-19.972-31.372-39.631-55.869z"/></g></svg>