<?xml version="1.0" encoding="UTF-8"?>
<svg xmlns="http://www.w3.org/2000/svg" id="Outline" viewBox="0 0 512 512" width="512" height="512"><path d="M346.491,96.4l13.2-46.2A8,8,0,0,0,352,40H240c-17.544,0-29.793-4.915-43.977-10.6C180.375,23.116,162.638,16,136,16,86.668,16,53.98,32.166,52.613,32.854a8,8,0,0,0-2.424,12.414l54.567,62.362c1.746,10.2,8.164,59.946-23.06,103.725-15.084,21.153-40.553,65.09-41.659,121.694C38.894,391.608,64.015,445.693,114.7,493.8a8.005,8.005,0,0,0,5.508,2.2H328a8,8,0,0,0,5.507-2.2c46.506-44.139,71.472-93.311,74.4-146.35A136.562,136.562,0,0,0,472,232C472,160.539,416.6,101.775,346.491,96.4Zm20.023,114.954h0a132.3,132.3,0,0,1-21.775-50.806A71.989,71.989,0,0,1,396.889,270.43,233.929,233.929,0,0,0,366.514,211.355ZM69.551,43.1C83.812,37.973,107.854,32,136,32c23.548,0,39.062,6.225,54.065,12.244C204.471,50.023,219.366,56,240,56H341.4l-11.43,40H115.84ZM94.724,220.645c30.349-42.553,29.163-88.867,26.845-108.645H326.641c-2.318,19.778-3.5,66.092,26.845,108.645A217.248,217.248,0,0,1,369.471,246.9l-53.777,31.566a56.183,56.183,0,0,1-55.837.494l-66.094-37.24a71.91,71.91,0,0,0-67.545-1.669L68.962,268.684A218.24,218.24,0,0,1,94.724,220.645ZM324.784,480H123.426a278.8,278.8,0,0,1-22.109-24H346.893A278.8,278.8,0,0,1,324.784,480Zm34.1-40H89.329C66.483,406.613,55.3,370.911,56.034,333.361A185.891,185.891,0,0,1,62.119,290l71.255-35.631a55.931,55.931,0,0,1,52.535,1.3L252,292.9a72.228,72.228,0,0,0,71.79-.634l52.524-30.831a193.292,193.292,0,0,1,15.859,71.925C392.91,370.911,381.728,406.613,358.881,440Zm49.125-112.024a201.8,201.8,0,0,0-5.511-38.344,87.993,87.993,0,0,0-60.14-145.4,151.947,151.947,0,0,1,.431-32.035,119.984,119.984,0,0,1,65.22,215.78Z" fill="#c7a17a"/></svg>
