<svg id="Layer_1" height="512" viewBox="0 0 512 512" width="512" xmlns="http://www.w3.org/2000/svg"><g><g fill="rgb(0,0,0)"><path d="m355.521 135.286h-220.736c-1.688 0-3.136-1.205-3.442-2.865s.616-3.303 2.194-3.904l104.374-39.846c.398-.152.821-.23 1.248-.23h11.989c.427 0 .85.078 1.249.23l32.64 12.461c1.806.689 2.711 2.712 2.021 4.518s-2.711 2.712-4.519 2.021l-32.037-12.23h-10.698l-86.038 32.846h182.772l-35.305-13.479c-1.806-.689-2.711-2.712-2.022-4.518.689-1.807 2.71-2.712 4.519-2.021l53.038 20.248c1.578.602 2.5 2.244 2.194 3.904s-1.754 2.865-3.441 2.865z"/><path d="m384.172 270.576c-.147 0-.296-.01-.444-.028-1.064-.137-2.007-.753-2.558-1.674l-8.781-14.661c-.806-1.346-.618-3.063.459-4.202l16.184-17.116-3.979-57.093-18.563-.348c-1.314-.024-2.504-.783-3.081-1.965-.576-1.182-.442-2.586.348-3.637 1.884-2.508 2.88-5.477 2.88-8.585 0-2.974-.915-5.835-2.646-8.274-.757-1.067-.856-2.469-.255-3.632s1.8-1.894 3.109-1.894h38.117c1.907 0 3.463 1.526 3.5 3.434l1.795 93.918c.018.962-.36 1.889-1.046 2.563l-22.586 22.19c-.659.648-1.542 1.004-2.453 1.004zm-4.415-17.683 5.133 8.571 18.34-18.019-1.7-88.978h-29.005c.735 2.174 1.113 4.463 1.113 6.8 0 2.521-.438 4.979-1.288 7.295l16.037.301c1.813.033 3.3 1.446 3.426 3.256l4.309 61.821c.068.977-.276 1.937-.949 2.647z"/><path d="m352.307 182.599h-8.818c-1.08 0-2.1-.499-2.763-1.352s-.895-1.964-.629-3.011l9.066-35.65c.399-1.569 1.845-2.674 3.44-2.638 11.599.161 21.035 9.725 21.035 21.319 0 11.762-9.569 21.332-21.331 21.332zm-4.317-7h4.317c7.902 0 14.331-6.429 14.331-14.331 0-6.867-4.929-12.674-11.437-14.024z"/><path d="m317.782 283.683h-145.258c-1.583 0-2.969-1.063-3.38-2.591l-26.166-97.253-22.612-19.946c-.275-.243-.51-.527-.697-.843l-17.44-29.481c-.64-1.082-.651-2.424-.028-3.517.623-1.092 1.784-1.766 3.041-1.766h250.279c1.08 0 2.1.499 2.763 1.352s.895 1.964.629 3.011l-37.739 148.396c-.395 1.552-1.792 2.638-3.392 2.638zm-142.575-7h139.854l35.958-141.396h-239.64l14.033 23.723 22.988 20.277c.516.455.886 1.052 1.064 1.716z"/><path d="m355.521 436.21h-220.735c-1.114 0-2.161-.53-2.821-1.428-.659-.897-.852-2.056-.519-3.118l19.898-63.534c.577-1.846 2.543-2.873 4.386-2.294 1.845.577 2.872 2.541 2.294 4.386l-18.475 58.988h211.208l-35.547-113.496h-140.114l-10.014 31.974c-.578 1.845-2.542 2.874-4.386 2.294-1.845-.577-2.872-2.541-2.294-4.386l10.783-34.428c.457-1.46 1.81-2.454 3.34-2.454h145.257c1.53 0 2.883.994 3.34 2.454l37.739 120.496c.333 1.063.14 2.221-.519 3.118-.66.898-1.708 1.428-2.821 1.428z"/><path d="m275.07 283.683h-59.834c-1.793 0-3.297-1.355-3.481-3.14l-15.341-148.396c-.102-.986.219-1.969.882-2.704.664-.736 1.608-1.156 2.599-1.156h90.517c.991 0 1.936.42 2.599 1.156.664.735.984 1.718.882 2.704l-15.341 148.396c-.185 1.784-1.689 3.14-3.482 3.14zm-56.677-7h53.521l14.618-141.396h-82.756z"/><path d="m290.411 436.21h-90.517c-1.005 0-1.962-.433-2.626-1.187-.665-.755-.973-1.758-.846-2.756l15.341-120.496c.223-1.748 1.71-3.058 3.472-3.058h59.834c1.762 0 3.25 1.31 3.472 3.058l15.341 120.496c.127.998-.181 2.001-.846 2.756-.663.754-1.619 1.187-2.625 1.187zm-86.543-7h82.569l-14.45-113.496h-53.669z"/></g><g><path d="m245.153 375.962c-11 0-19.95-8.949-19.95-19.95s8.95-19.95 19.95-19.95 19.95 8.949 19.95 19.95-8.95 19.95-19.95 19.95zm0-32.9c-7.141 0-12.95 5.81-12.95 12.95s5.81 12.95 12.95 12.95 12.95-5.81 12.95-12.95-5.81-12.95-12.95-12.95z" fill="rgb(0,0,0)"/></g><path d="m251.147 95.44h-11.989c-.99 0-1.935-.42-2.598-1.154l-11.42-12.65c-.927-1.027-1.162-2.503-.6-3.768.562-1.264 1.815-2.078 3.198-2.078h34.828c1.383 0 2.637.814 3.198 2.078.562 1.265.327 2.74-.6 3.768l-11.419 12.65c-.663.735-1.607 1.154-2.598 1.154zm-10.433-7h8.877l5.101-5.65h-19.079z" fill="rgb(0,0,0)"/><path d="m300.224 315.714h-110.142c-1.933 0-3.5-1.567-3.5-3.5v-32.031c0-1.933 1.567-3.5 3.5-3.5h110.143c1.933 0 3.5 1.567 3.5 3.5v32.031c-.001 1.932-1.568 3.5-3.501 3.5zm-106.642-7h103.143v-25.031h-103.143z" fill="rgb(0,0,0)"/><path d="m283.316 298.198h-20.75c-1.104 0-2-.896-2-2s.896-2 2-2h20.75c1.104 0 2 .896 2 2s-.895 2-2 2z" fill="rgb(0,0,0)"/><path d="m142.72 168.996c-.915 0-1.74-.631-1.949-1.561l-4.575-20.295c-.243-1.077.434-2.147 1.511-2.391 1.079-.239 2.148.434 2.391 1.512l4.575 20.295c.243 1.077-.434 2.147-1.511 2.391-.148.033-.296.049-.442.049z" fill="rgb(0,0,0)"/><path d="m339.244 416.609h-19.987c-1.104 0-2-.896-2-2s.896-2 2-2h19.987c1.104 0 2 .896 2 2s-.895 2-2 2z" fill="rgb(0,0,0)"/></g></svg>