<svg id="Capa_1" enable-background="new 0 0 512 512" height="512" viewBox="0 0 512 512" width="512" xmlns="http://www.w3.org/2000/svg"><g><g><path d="m177.658 151.992c-1.73 2.272-2.02 5.33-.746 7.886 15.075 30.27 45.379 49.073 79.088 49.073s64.013-18.804 79.088-49.073c1.273-2.556.984-5.614-.746-7.886-12.555-16.491-29.465-28.276-48.542-34.291 11.023-8.785 18.107-22.311 18.107-37.469 0-26.416-21.491-47.907-47.907-47.907s-47.907 21.491-47.907 47.907c0 15.158 7.084 28.684 18.107 37.469-19.077 6.015-35.987 17.8-48.542 34.291zm45.435-71.76c0-18.145 14.762-32.907 32.907-32.907s32.907 14.762 32.907 32.907-14.762 32.906-32.907 32.906-32.907-14.762-32.907-32.906zm32.907 47.906c24.671 0 47.524 10.593 63.416 29.228-13.132 22.684-37.019 36.585-63.416 36.585s-50.284-13.901-63.416-36.585c15.892-18.635 38.745-29.228 63.416-29.228z"/><path d="m493.089 326.491c-2.231-3.491-6.868-4.51-10.358-2.28s-4.511 6.868-2.28 10.358c10.826 16.939 16.549 36.577 16.549 56.791 0 58.25-47.39 105.64-105.64 105.64s-105.64-47.39-105.64-105.64 47.39-105.64 105.64-105.64c24.644 0 48.62 8.663 67.511 24.394 3.183 2.65 7.912 2.219 10.563-.964 2.65-3.183 2.219-7.913-.964-10.563-21.582-17.97-48.966-27.866-77.109-27.866-33.945 0-64.655 14.098-86.598 36.739l-41.263-24.421v-41.999c63.04-3.886 113.14-56.398 113.14-120.4 0-8.848-.962-17.647-2.86-26.153-.902-4.042-4.91-6.593-8.953-5.687-4.042.902-6.589 4.91-5.687 8.953 1.659 7.436 2.5 15.136 2.5 22.887 0 58.25-47.39 105.64-105.64 105.64s-105.64-47.39-105.64-105.64 47.39-105.64 105.64-105.64c37.393 0 72.364 20.081 91.266 52.406 2.091 3.576 6.685 4.779 10.26 2.688 3.576-2.091 4.779-6.684 2.688-10.26-21.581-36.907-61.514-59.834-104.214-59.834-66.521 0-120.64 54.119-120.64 120.64 0 64.002 50.1 116.513 113.14 120.4v41.999l-41.262 24.42c-21.943-22.641-52.653-36.739-86.598-36.739-44.237 0-84.864 24.161-106.028 63.055-1.98 3.638-.635 8.192 3.003 10.172 3.639 1.98 8.192.635 10.172-3.003 18.535-34.063 54.114-55.224 92.852-55.224 58.25 0 105.64 47.39 105.64 105.64s-47.389 105.64-105.639 105.64-105.64-47.39-105.64-105.64c0-6.629.622-13.268 1.849-19.732.772-4.069-1.901-7.994-5.971-8.767-4.065-.77-7.994 1.901-8.767 5.971-1.401 7.383-2.111 14.963-2.111 22.528 0 66.521 54.119 120.64 120.64 120.64s120.64-54.119 120.64-120.64c0-27.111-8.991-52.161-24.146-72.328l38.866-23.002 38.866 23.003c-15.155 20.167-24.146 45.216-24.146 72.328 0 66.521 54.119 120.64 120.64 120.64s120.64-54.12 120.64-120.641c0-23.082-6.539-45.513-18.911-64.869z"/><path d="m313.02 422.715c-1.73 2.272-2.02 5.33-.746 7.886 15.075 30.27 45.379 49.073 79.088 49.073s64.013-18.804 79.088-49.073c1.273-2.556.984-5.614-.746-7.886-12.555-16.491-29.465-28.276-48.542-34.291 11.022-8.785 18.107-22.311 18.107-37.469 0-26.416-21.491-47.906-47.906-47.906-26.416 0-47.907 21.491-47.907 47.906 0 15.158 7.084 28.685 18.107 37.469-19.078 6.015-35.988 17.8-48.543 34.291zm45.435-71.76c0-18.145 14.762-32.906 32.907-32.906s32.906 14.762 32.906 32.906c0 18.145-14.762 32.907-32.906 32.907-18.145 0-32.907-14.762-32.907-32.907zm32.907 47.907c24.671 0 47.524 10.593 63.416 29.228-13.132 22.684-37.019 36.585-63.416 36.585s-50.284-13.901-63.416-36.585c15.891-18.635 38.744-29.228 63.416-29.228z"/><path d="m42.296 422.715c-1.73 2.272-2.02 5.33-.746 7.886 15.075 30.27 45.379 49.073 79.088 49.073s64.013-18.804 79.088-49.073c1.273-2.556.984-5.614-.746-7.886-12.555-16.491-29.465-28.276-48.542-34.291 11.023-8.785 18.107-22.311 18.107-37.469 0-26.416-21.491-47.906-47.907-47.906s-47.906 21.491-47.906 47.906c0 15.158 7.084 28.685 18.107 37.469-19.077 6.015-35.987 17.8-48.543 34.291zm45.436-71.76c0-18.145 14.762-32.906 32.906-32.906 18.145 0 32.907 14.762 32.907 32.906 0 18.145-14.762 32.907-32.907 32.907-18.144 0-32.906-14.762-32.906-32.907zm32.906 47.907c24.671 0 47.524 10.593 63.416 29.228-13.132 22.684-37.019 36.585-63.416 36.585s-50.284-13.901-63.416-36.585c15.892-18.635 38.745-29.228 63.416-29.228z"/></g></g></svg>